# xmcd
#
# Track frame offsets:
# 150
# 62807
# 84543
# 100387
# 107573
# 131260
# 169009
# 184268
#
# Disc length: 2752 seconds
#
# Revision: 0
# Processed by: cddbd v1.5.2PL0 Copyright (c) Steve Scherf et al.
# Submitted via: Audion 3.0.2 (http://www.panic.com/audion/)
#
DISCID=640abe08
DTITLE=Igor - At Work
DYEAR=1900
DGENRE=
TTITLE0=A
TTITLE1=B
TTITLE2=C
TTITLE3=D
TTITLE4=E
TTITLE5=F
TTITLE6=G
TTITLE7=H
EXTD=
EXTT0=
EXTT1=
EXTT2=
EXTT3=
EXTT4=
EXTT5=
EXTT6=
EXTT7=
PLAYORDER=
